<svg xmlns="http://www.w3.org/2000/svg">
    <!-- add icons inside <symbol> tags and reference them with their ids -->

    <!-- @todo-wordpress remove it not needed -->
    <symbol id="icon" viewBox="0 0 73.5 73.5">
        <path d="M62.74,10.76c-14.35-14.35-37.62-14.35-51.97,0s-14.35,37.62,0,51.97s37.62,14.35,51.97,0
            C77.09,48.38,77.09,25.12,62.74,10.76z M57.93,27.71L32.4,53.24c-0.38,0.38-1.01,0.38-1.39,0L15.51,37.75
            c-0.38-0.38-0.38-1.01,0-1.39l6.4-6.4c0.38-0.38,1.01-0.38,1.39,0l7.7,7.7c0.38,0.38,1.01,0.38,1.39,0l17.69-17.68
            c0.38-0.38,1.01-0.39,1.4-0.01l6.44,6.35C58.31,26.7,58.31,27.33,57.93,27.71z" />
    </symbol>
</svg>
